<?xml version="1.0" standalone="no"?>
<!DOCTYPE svg PUBLIC "-//W3C//DTD SVG 20010904//EN"
 "http://www.w3.org/TR/2001/REC-SVG-20010904/DTD/svg10.dtd">
<svg version="1.0" xmlns="http://www.w3.org/2000/svg"
 width="700.000000pt" height="700.000000pt" viewBox="0 0 700.000000 700.000000"
 preserveAspectRatio="xMidYMid meet">
<metadata>
Created by potrace 1.11, written by Peter Selinger 2001-2013
</metadata>
<g transform="translate(0.000000,700.000000) scale(0.100000,-0.100000)"
fill="#000000" stroke="none">
<path d="M5124 6039 c-187 -374 -251 -512 -339 -732 -139 -349 -150 -511 -47
-717 71 -142 224 -268 381 -312 91 -26 247 -28 326 -4 171 51 321 175 393 327
110 231 84 405 -135 904 -72 163 -395 821 -413 839 -5 5 -77 -128 -166 -305z"/>
<path d="M1618 6313 l-108 -4 -1 -222 0 -222 -67 -32 c-37 -17 -87 -49 -111
-69 l-43 -37 -199 98 c-109 55 -200 97 -202 95 -14 -15 -177 -352 -173 -358 2
-4 90 -50 195 -102 l191 -95 2 -82 c1 -46 2 -93 2 -105 1 -18 -32 -42 -184
-134 -102 -61 -184 -116 -183 -121 2 -9 145 -252 189 -320 14 -22 15 -22 204
92 l190 114 61 -39 c34 -22 77 -45 95 -52 l34 -12 0 -223 0 -223 53 0 c30 0
122 -3 205 -7 l152 -6 0 225 0 225 73 36 c39 20 90 52 112 71 l40 34 198 -100
c110 -54 200 -98 202 -96 1 2 44 85 94 185 l91 183 -200 100 -200 100 0 84 c0
47 -2 91 -5 99 -4 10 50 47 185 128 104 62 190 117 190 121 0 6 -196 336 -205
346 -2 2 -87 -46 -188 -107 -102 -61 -190 -111 -196 -111 -5 0 -30 14 -55 30
-25 17 -65 40 -90 51 l-46 20 0 224 0 225 -97 -2 c-54 -1 -146 -4 -205 -5z"/>
<path d="M3500 1750 l0 -1750 1750 0 1750 0 0 1750 0 1750 -1750 0 -1750 0 0
-1750z m2339 975 c159 -38 320 -161 394 -303 186 -354 15 -760 -373 -888 -51
-17 -113 -19 -827 -22 l-773 -3 0 205 0 206 753 2 753 3 42 27 c58 39 93 103
93 170 0 68 -14 104 -59 151 -49 51 -108 67 -244 67 l-108 0 0 200 0 200 143
0 c91 0 165 -6 206 -15z m471 -1830 l0 -205 -1025 0 -1025 0 0 205 0 205 1025
0 1025 0 0 -205z"/>
<path d="M1613 2529 c-133 -22 -256 -91 -354 -197 -51 -56 -128 -186 -129
-218 -1 -5 -42 -29 -93 -53 -163 -77 -283 -223 -327 -397 -39 -153 -19 -317
57 -454 49 -88 159 -195 249 -242 139 -73 137 -73 714 -73 l515 0 73 27 c197
72 342 220 402 413 43 135 26 326 -40 455 -60 117 -176 226 -305 285 -62 28
-72 37 -84 71 -18 53 -73 140 -118 190 -144 157 -350 228 -560 193z"/>
</g>
</svg>
